<svg width="14" height="15" viewBox="0 0 14 15" fill="none" xmlns="http://www.w3.org/2000/svg">
<path fill-rule="evenodd" clip-rule="evenodd" d="M6.99886 0.5L7.02056 0.500135C10.8769 0.51146 13.9995 3.64109 13.9995 7.50005C13.9995 11.366 10.8655 14.5 6.99956 14.5C3.14086 14.5 0.0113932 11.3778 -0.000350558 7.52183L-0.000488281 7.49994L-0.000349674 7.47798C0.0115258 3.62978 3.12861 0.51244 6.97671 0.500141L6.99886 0.5ZM1.68128 5.37086C2.26248 3.92099 3.41942 2.76402 4.86926 2.18276C4.5292 2.83964 4.26241 3.65844 4.08257 4.5838C3.15705 4.76373 2.33815 5.03064 1.68128 5.37086ZM1.27295 7.49999C1.27295 6.92791 2.30879 6.30717 3.88989 5.93371C3.8419 6.438 3.81707 6.96236 3.81707 7.49995C3.81707 8.03757 3.84191 8.56195 3.88989 9.06626C2.30879 8.69281 1.27295 8.07207 1.27295 7.49999ZM10.1807 7.49995C10.1807 8.03779 10.1558 8.5624 10.1078 9.0669C11.6904 8.69351 12.7274 8.0724 12.7274 7.49999C12.7274 6.92758 11.6904 6.30646 10.1078 5.93308C10.1558 6.43756 10.1807 6.96213 10.1807 7.49995ZM1.68044 9.62859C2.33745 9.96902 3.15665 10.2361 4.08257 10.4161C4.2626 11.3424 4.52976 12.162 4.87034 12.8192C3.4193 12.2378 2.26151 11.0798 1.68044 9.62859ZM9.91511 10.4163C9.73503 11.3428 9.4678 12.1625 9.12712 12.8197C10.5787 12.2385 11.737 11.0803 12.3182 9.62871C11.661 9.96924 10.8414 10.2363 9.91511 10.4163ZM9.1282 2.18225C9.46836 2.83916 9.73522 3.65806 9.91511 4.58355C10.841 4.76347 11.6603 5.03042 12.3174 5.37074C11.736 3.9205 10.5786 2.76332 9.1282 2.18225ZM5.09056 7.50091C5.09056 6.29737 5.23473 5.18719 5.46232 4.27109C5.95029 4.21974 6.46535 4.19142 6.99876 4.19142C7.53283 4.19142 8.04851 4.21981 8.537 4.27127C8.76457 5.18735 8.90872 6.29745 8.90872 7.50091C8.90872 7.63019 8.90705 7.7584 8.9038 7.8854C8.30927 7.96421 7.66847 8.00885 6.99876 8.00885C6.32972 8.00885 5.68952 7.9643 5.09548 7.88563C5.09223 7.75855 5.09056 7.63027 5.09056 7.50091ZM6.99964 13.2281C6.2692 13.2281 5.45944 11.5395 5.18636 9.18331C5.76538 9.24793 6.37311 9.28157 6.99876 9.28157C7.62505 9.28157 8.23339 9.24786 8.81294 9.18312C8.53988 11.5394 7.7301 13.2281 6.99964 13.2281ZM5.90277 2.9539C6.23466 2.21212 6.62745 1.77368 6.99964 1.77368C7.37185 1.77368 7.76466 2.21216 8.09656 2.95402C7.73852 2.93066 7.37183 2.9187 6.99876 2.9187C6.62633 2.9187 6.26024 2.93062 5.90277 2.9539Z" fill="#84878B"/>
</svg>
